<mxfile host="app.diagrams.net" agent="Mozilla/5.0 (Windows NT 10.0; Win64; x64) AppleWebKit/537.36 (KHTML, like Gecko) Chrome/134.0.0.0 Safari/537.36" border="50" scale="3" compressed="false" locked="false" version="26.1.3">
  <diagram name="Blank" id="YmL12bMKpDGza6XwsDPr">
    <mxGraphModel dx="3068" dy="720" grid="0" gridSize="10" guides="1" tooltips="1" connect="1" arrows="1" fold="1" page="0" pageScale="1" pageWidth="827" pageHeight="1169" background="none" math="1" shadow="0">
      <root>
        <mxCell id="X5NqExCQtvZxIxQ7pmgY-0" />
        <mxCell id="1" parent="X5NqExCQtvZxIxQ7pmgY-0" />
        <mxCell id="-uR6cY9jI7Pg-GlhvNe3-31" value="" style="whiteSpace=wrap;html=1;aspect=fixed;dashed=1;fillColor=none;" vertex="1" parent="1">
          <mxGeometry x="-640" y="465" width="262" height="262" as="geometry" />
        </mxCell>
        <mxCell id="-uR6cY9jI7Pg-GlhvNe3-1" value="" style="image;html=1;image=img/lib/clip_art/networking/Wireless_Router_N_128x128.png" vertex="1" parent="1">
          <mxGeometry x="-1230" y="333" width="116" height="116" as="geometry" />
        </mxCell>
        <mxCell id="-uR6cY9jI7Pg-GlhvNe3-2" value="" style="image;html=1;image=img/lib/clip_art/networking/Firewall_02_128x128.png" vertex="1" parent="1">
          <mxGeometry x="-876" y="340" width="117" height="117" as="geometry" />
        </mxCell>
        <mxCell id="-uR6cY9jI7Pg-GlhvNe3-3" value="" style="image;points=[];aspect=fixed;html=1;align=center;shadow=0;dashed=0;image=img/lib/allied_telesis/computer_and_terminals/Personal_Computer_with_Server.svg;" vertex="1" parent="1">
          <mxGeometry x="-551" y="59" width="102.4" height="102.4" as="geometry" />
        </mxCell>
        <mxCell id="-uR6cY9jI7Pg-GlhvNe3-4" value="" style="sketch=0;pointerEvents=1;shadow=0;dashed=0;html=1;strokeColor=none;fillColor=#505050;labelPosition=center;verticalLabelPosition=bottom;verticalAlign=top;outlineConnect=0;align=center;shape=mxgraph.office.devices.tv;" vertex="1" parent="1">
          <mxGeometry x="-504" y="186" width="88" height="67.12" as="geometry" />
        </mxCell>
        <mxCell id="-uR6cY9jI7Pg-GlhvNe3-5" value="" style="outlineConnect=0;dashed=0;verticalLabelPosition=bottom;verticalAlign=top;align=center;html=1;shape=mxgraph.aws3.mobile_client;fillColor=#D2D3D3;gradientColor=none;" vertex="1" parent="1">
          <mxGeometry x="-603" y="158" width="65.5" height="101.89" as="geometry" />
        </mxCell>
        <mxCell id="-uR6cY9jI7Pg-GlhvNe3-7" value="" style="image;aspect=fixed;perimeter=ellipsePerimeter;html=1;align=center;shadow=0;dashed=0;spacingTop=3;image=img/lib/active_directory/internet_cloud.svg;" vertex="1" parent="1">
          <mxGeometry x="-1536" y="362" width="150.79" height="95" as="geometry" />
        </mxCell>
        <mxCell id="-uR6cY9jI7Pg-GlhvNe3-9" value="" style="fontColor=#0066CC;verticalAlign=top;verticalLabelPosition=bottom;labelPosition=center;align=center;html=1;outlineConnect=0;fillColor=#CCCCCC;strokeColor=#6881B3;gradientColor=none;gradientDirection=north;strokeWidth=2;shape=mxgraph.networks.printer;" vertex="1" parent="1">
          <mxGeometry x="-496" y="601" width="100" height="100" as="geometry" />
        </mxCell>
        <mxCell id="-uR6cY9jI7Pg-GlhvNe3-12" value="" style="shape=mxgraph.signs.transportation.car_3;html=1;pointerEvents=1;fillColor=#000000;strokeColor=none;verticalLabelPosition=bottom;verticalAlign=top;align=center;" vertex="1" parent="1">
          <mxGeometry x="-551" y="508" width="153" height="58.73" as="geometry" />
        </mxCell>
        <mxCell id="-uR6cY9jI7Pg-GlhvNe3-13" value="" style="html=1;verticalLabelPosition=bottom;align=center;labelBackgroundColor=#ffffff;verticalAlign=top;strokeWidth=2;strokeColor=#0080F0;shadow=0;dashed=0;shape=mxgraph.ios7.icons.lightbulb;" vertex="1" parent="1">
          <mxGeometry x="-604.3" y="586" width="66.8" height="87.02" as="geometry" />
        </mxCell>
        <object placeholders="1" c4Type="Relationship" c4Technology="e.g. JSON/HTTPS/SFTP" c4Description="Allowed protocols" label="&lt;div style=&quot;text-align: left&quot;&gt;&lt;div style=&quot;text-align: center&quot;&gt;&lt;b&gt;%c4Description%&lt;/b&gt;&lt;/div&gt;&lt;div style=&quot;text-align: center&quot;&gt;[%c4Technology%]&lt;/div&gt;&lt;/div&gt;" id="-uR6cY9jI7Pg-GlhvNe3-15">
          <mxCell style="endArrow=blockThin;html=1;fontSize=10;fontColor=#404040;strokeWidth=1;endFill=1;strokeColor=#828282;elbow=vertical;metaEdit=1;endSize=14;startSize=14;jumpStyle=arc;jumpSize=16;rounded=0;edgeStyle=orthogonalEdgeStyle;" edge="1" parent="1">
            <mxGeometry width="240" relative="1" as="geometry">
              <mxPoint x="-1105" y="377.97" as="sourcePoint" />
              <mxPoint x="-865" y="377.97" as="targetPoint" />
            </mxGeometry>
          </mxCell>
        </object>
        <object placeholders="1" c4Type="Relationship" c4Technology="e.g. uPnP/HNAP/SNMP" c4Description="Unauthorized protocols" label="&lt;div style=&quot;text-align: left&quot;&gt;&lt;div style=&quot;text-align: center&quot;&gt;&lt;b&gt;%c4Description%&lt;/b&gt;&lt;/div&gt;&lt;div style=&quot;text-align: center&quot;&gt;[%c4Technology%]&lt;/div&gt;&lt;/div&gt;" id="-uR6cY9jI7Pg-GlhvNe3-24">
          <mxCell style="endArrow=blockThin;html=1;fontSize=10;fontColor=#404040;strokeWidth=1;endFill=1;strokeColor=#828282;elbow=vertical;metaEdit=1;endSize=14;startSize=14;jumpStyle=arc;jumpSize=16;rounded=0;edgeStyle=orthogonalEdgeStyle;" edge="1" parent="1">
            <mxGeometry width="240" relative="1" as="geometry">
              <mxPoint x="-1105" y="436" as="sourcePoint" />
              <mxPoint x="-865" y="436" as="targetPoint" />
            </mxGeometry>
          </mxCell>
        </object>
        <mxCell id="-uR6cY9jI7Pg-GlhvNe3-28" value="" style="endArrow=none;html=1;rounded=0;exitX=-0.002;exitY=0.33;exitDx=0;exitDy=0;exitPerimeter=0;" edge="1" parent="1" source="-uR6cY9jI7Pg-GlhvNe3-2">
          <mxGeometry width="50" height="50" relative="1" as="geometry">
            <mxPoint x="-595" y="573" as="sourcePoint" />
            <mxPoint x="-507" y="379" as="targetPoint" />
          </mxGeometry>
        </mxCell>
        <mxCell id="-uR6cY9jI7Pg-GlhvNe3-29" value="" style="whiteSpace=wrap;html=1;aspect=fixed;dashed=1;fillColor=none;" vertex="1" parent="1">
          <mxGeometry x="-640" y="37" width="262" height="262" as="geometry" />
        </mxCell>
        <mxCell id="-uR6cY9jI7Pg-GlhvNe3-32" value="" style="sketch=0;html=1;aspect=fixed;strokeColor=none;shadow=0;fillColor=#3B8DF1;verticalAlign=top;labelPosition=center;verticalLabelPosition=bottom;shape=mxgraph.gcp2.arrows_system" vertex="1" parent="1">
          <mxGeometry x="-881.5" y="131.52" width="128" height="121.6" as="geometry" />
        </mxCell>
        <mxCell id="-uR6cY9jI7Pg-GlhvNe3-33" value="" style="endArrow=none;html=1;rounded=0;" edge="1" parent="1">
          <mxGeometry width="50" height="50" relative="1" as="geometry">
            <mxPoint x="-1393" y="414" as="sourcePoint" />
            <mxPoint x="-1240" y="414" as="targetPoint" />
          </mxGeometry>
        </mxCell>
        <mxCell id="-uR6cY9jI7Pg-GlhvNe3-34" value="TLS v1.3" style="edgeLabel;html=1;align=center;verticalAlign=middle;resizable=0;points=[];" vertex="1" connectable="0" parent="-uR6cY9jI7Pg-GlhvNe3-33">
          <mxGeometry x="-0.2852" y="-1" relative="1" as="geometry">
            <mxPoint x="15" y="-11" as="offset" />
          </mxGeometry>
        </mxCell>
        <mxCell id="-uR6cY9jI7Pg-GlhvNe3-35" value="Password&lt;div&gt;Policy&lt;/div&gt;" style="whiteSpace=wrap;html=1;shape=mxgraph.basic.document;fillColor=none;" vertex="1" parent="1">
          <mxGeometry x="-867.5" y="532.73" width="100" height="100" as="geometry" />
        </mxCell>
        <mxCell id="-uR6cY9jI7Pg-GlhvNe3-36" value="&lt;div&gt;Firmware&lt;/div&gt;&lt;div&gt;Updates&lt;/div&gt;&lt;div&gt;Lifecycle&lt;/div&gt;" style="text;html=1;align=center;verticalAlign=middle;resizable=0;points=[];autosize=1;strokeColor=none;fillColor=none;" vertex="1" parent="1">
          <mxGeometry x="-851" y="167.52" width="68" height="55" as="geometry" />
        </mxCell>
        <mxCell id="-uR6cY9jI7Pg-GlhvNe3-37" value="" style="endArrow=none;html=1;rounded=0;exitX=0.5;exitY=1;exitDx=0;exitDy=0;entryX=0.5;entryY=0;entryDx=0;entryDy=0;" edge="1" parent="1" source="-uR6cY9jI7Pg-GlhvNe3-29" target="-uR6cY9jI7Pg-GlhvNe3-31">
          <mxGeometry width="50" height="50" relative="1" as="geometry">
            <mxPoint x="-425" y="400" as="sourcePoint" />
            <mxPoint x="-509" y="379" as="targetPoint" />
          </mxGeometry>
        </mxCell>
        <mxCell id="-uR6cY9jI7Pg-GlhvNe3-38" value="WPA3" style="text;html=1;align=center;verticalAlign=middle;resizable=0;points=[];autosize=1;strokeColor=none;fillColor=none;" vertex="1" parent="1">
          <mxGeometry x="-647" y="356" width="51" height="26" as="geometry" />
        </mxCell>
        <mxCell id="-uR6cY9jI7Pg-GlhvNe3-40" value="" style="html=1;strokeWidth=1;shadow=0;dashed=0;shape=mxgraph.ios7.misc.wifi;fillColor=#007AFF;strokeColor=none;buttonText=;strokeColor2=#222222;fontColor=#222222;fontSize=8;verticalLabelPosition=bottom;verticalAlign=top;align=center;sketch=0;" vertex="1" parent="1">
          <mxGeometry x="-628" y="46" width="48" height="48" as="geometry" />
        </mxCell>
        <mxCell id="-uR6cY9jI7Pg-GlhvNe3-41" value="" style="html=1;strokeWidth=1;shadow=0;dashed=0;shape=mxgraph.ios7.misc.wifi;fillColor=#007AFF;strokeColor=none;buttonText=;strokeColor2=#222222;fontColor=#222222;fontSize=8;verticalLabelPosition=bottom;verticalAlign=top;align=center;sketch=0;" vertex="1" parent="1">
          <mxGeometry x="-628" y="472" width="48" height="48" as="geometry" />
        </mxCell>
        <mxCell id="-uR6cY9jI7Pg-GlhvNe3-42" value="Guest Network" style="text;html=1;align=center;verticalAlign=middle;resizable=0;points=[];autosize=1;strokeColor=none;fillColor=none;fontStyle=1" vertex="1" parent="1">
          <mxGeometry x="-643" y="442" width="97" height="26" as="geometry" />
        </mxCell>
        <mxCell id="-uR6cY9jI7Pg-GlhvNe3-43" value="Home Network" style="text;html=1;align=center;verticalAlign=middle;resizable=0;points=[];autosize=1;strokeColor=none;fillColor=none;fontStyle=1" vertex="1" parent="1">
          <mxGeometry x="-637" y="11" width="97" height="26" as="geometry" />
        </mxCell>
        <mxCell id="-uR6cY9jI7Pg-GlhvNe3-44" value="" style="endArrow=none;html=1;rounded=0;entryX=0.5;entryY=0;entryDx=0;entryDy=0;exitX=0.496;exitY=0.995;exitDx=0;exitDy=0;exitPerimeter=0;" edge="1" parent="1" source="-uR6cY9jI7Pg-GlhvNe3-32" target="-uR6cY9jI7Pg-GlhvNe3-2">
          <mxGeometry width="50" height="50" relative="1" as="geometry">
            <mxPoint x="-977" y="314" as="sourcePoint" />
            <mxPoint x="-927" y="264" as="targetPoint" />
          </mxGeometry>
        </mxCell>
        <mxCell id="-uR6cY9jI7Pg-GlhvNe3-45" value="" style="endArrow=none;html=1;rounded=0;entryX=0.5;entryY=0;entryDx=0;entryDy=0;exitX=0.496;exitY=0.995;exitDx=0;exitDy=0;exitPerimeter=0;" edge="1" parent="1">
          <mxGeometry width="50" height="50" relative="1" as="geometry">
            <mxPoint x="-818.12" y="446" as="sourcePoint" />
            <mxPoint x="-817.12" y="533" as="targetPoint" />
          </mxGeometry>
        </mxCell>
        <mxCell id="-uR6cY9jI7Pg-GlhvNe3-46" value="********" style="strokeWidth=1;html=1;shadow=0;dashed=0;shape=mxgraph.ios.iTextInput;strokeColor=#444444;align=left;buttonText=;fontSize=8;whiteSpace=wrap;" vertex="1" parent="1">
          <mxGeometry x="-848.25" y="601" width="61.5" height="21.2" as="geometry" />
        </mxCell>
        <mxCell id="-uR6cY9jI7Pg-GlhvNe3-47" value="Router" style="text;html=1;align=center;verticalAlign=middle;resizable=0;points=[];autosize=1;strokeColor=none;fillColor=none;fontStyle=1" vertex="1" parent="1">
          <mxGeometry x="-1182" y="446" width="54" height="26" as="geometry" />
        </mxCell>
        <mxCell id="-uR6cY9jI7Pg-GlhvNe3-48" value="Internet" style="text;html=1;align=center;verticalAlign=middle;resizable=0;points=[];autosize=1;strokeColor=none;fillColor=none;fontStyle=1" vertex="1" parent="1">
          <mxGeometry x="-1493" y="394" width="59" height="26" as="geometry" />
        </mxCell>
        <mxCell id="-uR6cY9jI7Pg-GlhvNe3-49" value="Router&lt;div&gt;Firewall&lt;/div&gt;" style="text;html=1;align=center;verticalAlign=middle;resizable=0;points=[];autosize=1;strokeColor=none;fillColor=none;fontStyle=1" vertex="1" parent="1">
          <mxGeometry x="-812.5" y="439" width="59" height="41" as="geometry" />
        </mxCell>
      </root>
    </mxGraphModel>
  </diagram>
</mxfile>
